<svg width="24" height="24" viewBox="0 0 24 24" fill="none" xmlns="http://www.w3.org/2000/svg">
<path fill-rule="evenodd" clip-rule="evenodd" d="M16 1H5L3 3V11L2 12V18L3 19V21L5 23H19L21 21V6L16 1ZM5 19V21H19V7H16H15V3H5V11H16L17 12V18L16 19H5ZM4 13.521V16.479C4 16.6471 4.04394 16.7759 4.13181 16.8655C4.21968 16.9552 4.34417 17 4.50526 17C4.67002 17 4.79451 16.9552 4.87872 16.8655C4.96659 16.7759 5.01053 16.6471 5.01053 16.479V15.5882H5.86179C6.30115 15.5882 6.63982 15.4743 6.87781 15.2465C7.11945 15.0149 7.24028 14.6975 7.24028 14.2941C7.24028 13.8908 7.11945 13.5752 6.87781 13.3473C6.63982 13.1158 6.30115 13 5.86179 13H4.51076C4.346 13 4.21968 13.0448 4.13181 13.1345C4.04394 13.2241 4 13.3529 4 13.521ZM5.68604 14.7983H5.01053V13.7899H5.68604C6.08147 13.7899 6.27918 13.958 6.27918 14.2941C6.27918 14.6303 6.08147 14.7983 5.68604 14.7983ZM7.82123 16.4174C7.82123 16.7722 7.99697 16.9496 8.34846 16.9496H9.42489C10.0949 16.9496 10.6148 16.7778 10.9846 16.4342C11.3544 16.0868 11.5393 15.5994 11.5393 14.972C11.5393 14.3445 11.3544 13.859 10.9846 13.5154C10.6148 13.1718 10.0949 13 9.42489 13H8.34846C7.99697 13 7.82123 13.1774 7.82123 13.5322V16.4174ZM9.35899 16.1148H8.83176V13.8347H9.35899C9.73977 13.8347 10.0235 13.9281 10.2102 14.1148C10.397 14.3016 10.4903 14.5873 10.4903 14.972C10.4903 15.3567 10.397 15.6443 10.2102 15.8347C10.0272 16.0215 9.74343 16.1148 9.35899 16.1148ZM12.7593 17C12.5982 17 12.4718 16.9552 12.3803 16.8655C12.2924 16.7722 12.2485 16.6396 12.2485 16.4678V13.5322C12.2485 13.1774 12.4243 13 12.7757 13H14.6046C14.8682 13 15 13.1307 15 13.3922C15 13.6611 14.8682 13.7955 14.6046 13.7955H13.259V14.591H14.4838C14.7474 14.591 14.8792 14.7218 14.8792 14.9832C14.8792 15.2484 14.7474 15.381 14.4838 15.381H13.259V16.4678C13.259 16.8226 13.0924 17 12.7593 17Z" fill="#3360AD"/>
</svg>
